HIERARCHY
ROOT  Hips
{
    OFFSET  0.000000  93.020000  0.000000
    CHANNELS  6  Xposition  Yposition  Zposition  Yrotation  Xrotation  Zrotation
    JOINT  RightUpLeg
    {
        OFFSET  -9.250000  -1.590000  0.000000
        CHANNELS  3  Yrotation  Xrotation  Zrotation
        JOINT  RightLeg
        {
            OFFSET  0.000000  -41.870000  0.000000
            CHANNELS  3  Yrotation  Xrotation  Zrotation
            JOINT  RightFoot
            {
                OFFSET  0.000000  -41.870000  0.000000
                CHANNELS  3  Yrotation  Xrotation  Zrotation
                End Site
                {
                    OFFSET  0.000000  -7.690000  17.500000
                }
            }
        }
    }
    JOINT  LeftUpLeg
    {
        OFFSET  9.250000  -1.590000  0.000000
        CHANNELS  3  Yrotation  Xrotation  Zrotation
        JOINT  LeftLeg
        {
            OFFSET  0.000000  -41.870000  0.000000
            CHANNELS  3  Yrotation  Xrotation  Zrotation
            JOINT  LeftFoot
            {
                OFFSET  0.000000  -41.870000  0.000000
                CHANNELS  3  Yrotation  Xrotation  Zrotation
                End Site
                {
                    OFFSET  0.000000  -7.690000  17.500000
                }
            }
        }
    }
    JOINT  Spine
    {
        OFFSET  0.000000  14.307000  0.000000
        CHANNELS  3  Yrotation  Xrotation  Zrotation
        JOINT  Spine1
        {
            OFFSET  0.000000  9.718000  0.000000
            CHANNELS  3  Yrotation  Xrotation  Zrotation
            JOINT  Spine2
            {
                OFFSET  0.000000  10.120000  0.000000
                CHANNELS  3  Yrotation  Xrotation  Zrotation
                JOINT  Spine3
                {
                    OFFSET  0.000000  9.718000  0.000000
                    CHANNELS  3  Yrotation  Xrotation  Zrotation
                    JOINT  Neck
                    {
                        OFFSET  0.000000  10.387000  0.000000
                        CHANNELS  3  Yrotation  Xrotation  Zrotation
                        JOINT  Head
                        {
                            OFFSET  0.000000  9.470000  0.000000
                            CHANNELS  3  Yrotation  Xrotation  Zrotation
                            End Site
                            {
                                OFFSET  0.000000  15.950000  0.000000
                            }
                        }
                    }
                    JOINT  RightShoulder
                    {
                        OFFSET  -3.200000  6.925000  0.000000
                        CHANNELS  3  Yrotation  Xrotation  Zrotation
                        JOINT  RightArm
                        {
                            OFFSET  -12.800000  0.000000  0.000000
                            CHANNELS  3  Yrotation  Xrotation  Zrotation
                            JOINT  RightForeArm
                            {
                                OFFSET  -26.500000  0.000000  0.000000
                                CHANNELS  3  Yrotation  Xrotation  Zrotation
                                JOINT  RightHand
                                {
                                    OFFSET  -26.000000  0.000000  0.000000
                                    CHANNELS  3  Yrotation  Xrotation  Zrotation
                                    JOINT  RightHandThumb1
                                    {
                                        OFFSET  -2.489000  0.190000  3.121000
                                        CHANNELS  3  Yrotation  Xrotation  Zrotation
                                        JOINT  RightHandThumb2
                                        {
                                            OFFSET  -3.683000  0.000000  0.000000
                                            CHANNELS  3  Yrotation  Xrotation  Zrotation
                                            JOINT  RightHandThumb3
                                            {
                                                OFFSET  -2.558000  0.000000  0.000000
                                                CHANNELS  3  Yrotation  Xrotation  Zrotation
                                                End Site
                                                {
                                                    OFFSET  -2.194000  0.000000  0.000000
                                                }
                                            }
                                        }
                                    }
                                    JOINT  RightInHandIndex
                                    {
                                        OFFSET  -3.224000  0.508000  1.978000
                                        CHANNELS  3  Yrotation  Xrotation  Zrotation
                                        JOINT  RightHandIndex1
                                        {
                                            OFFSET  -5.217000  -0.091000  0.999000
                                            CHANNELS  3  Yrotation  Xrotation  Zrotation
                                            JOINT  RightHandIndex2
                                            {
                                                OFFSET  -3.619000  0.000000  0.000000
                                                CHANNELS  3  Yrotation  Xrotation  Zrotation
                                                JOINT  RightHandIndex3
                                                {
                                                    OFFSET  -2.052000  0.000000  0.000000
                                                    CHANNELS  3  Yrotation  Xrotation  Zrotation
                                                    End Site
                                                    {
                                                        OFFSET  -1.805000  0.000000  0.000000
                                                    }
                                                }
                                            }
                                        }
                                    }
                                    JOINT  RightInHandMiddle
                                    {
                                        OFFSET  -3.382000  0.517000  0.757000
                                        CHANNELS  3  Yrotation  Xrotation  Zrotation
                                        JOINT  RightHandMiddle1
                                        {
                                            OFFSET  -5.174000  -0.084000  0.314000
                                            CHANNELS  3  Yrotation  Xrotation  Zrotation
                                            JOINT  RightHandMiddle2
                                            {
                                                OFFSET  -3.949000  0.000000  0.000000
                                                CHANNELS  3  Yrotation  Xrotation  Zrotation
                                                JOINT  RightHandMiddle3
                                                {
                                                    OFFSET  -2.476000  0.000000  0.000000
                                                    CHANNELS  3  Yrotation  Xrotation  Zrotation
                                                    End Site
                                                    {
                                                        OFFSET  -1.975000  0.000000  0.000000
                                                    }
                                                }
                                            }
                                        }
                                    }
                                    JOINT  RightInHandRing
                                    {
                                        OFFSET  -3.365000  0.538000  -0.129000
                                        CHANNELS  3  Yrotation  Xrotation  Zrotation
                                        JOINT  RightHandRing1
                                        {
                                            OFFSET  -4.635000  -0.022000  -0.479000
                                            CHANNELS  3  Yrotation  Xrotation  Zrotation
                                            JOINT  RightHandRing2
                                            {
                                                OFFSET  -3.442000  0.000000  0.000000
                                                CHANNELS  3  Yrotation  Xrotation  Zrotation
                                                JOINT  RightHandRing3
                                                {
                                                    OFFSET  -2.388000  0.000000  0.000000
                                                    CHANNELS  3  Yrotation  Xrotation  Zrotation
                                                    End Site
                                                    {
                                                        OFFSET  -1.857000  0.000000  0.000000
                                                    }
                                                }
                                            }
                                        }
                                    }
                                    JOINT  RightInHandPinky
                                    {
                                        OFFSET  -3.161000  0.469000  -1.202000
                                        CHANNELS  3  Yrotation  Xrotation  Zrotation
                                        JOINT  RightHandPinky1
                                        {
                                            OFFSET  -4.141000  -0.022000  -1.091000
                                            CHANNELS  3  Yrotation  Xrotation  Zrotation
                                            JOINT  RightHandPinky2
                                            {
                                                OFFSET  -2.757000  0.000000  0.000000
                                                CHANNELS  3  Yrotation  Xrotation  Zrotation
                                                JOINT  RightHandPinky3
                                                {
                                                    OFFSET  -1.742000  0.000000  0.000000
                                                    CHANNELS  3  Yrotation  Xrotation  Zrotation
                                                    End Site
                                                    {
                                                        OFFSET  -1.645000  0.000000  0.000000
                                                    }
                                                }
                                            }
                                        }
                                    }
                                }
                            }
                        }
                    }
                    JOINT  LeftShoulder
                    {
                        OFFSET  3.200000  6.925000  0.000000
                        CHANNELS  3  Yrotation  Xrotation  Zrotation
                        JOINT  LeftArm
                        {
                            OFFSET  12.800000  0.000000  0.000000
                            CHANNELS  3  Yrotation  Xrotation  Zrotation
                            JOINT  LeftForeArm
                            {
                                OFFSET  26.500000  0.000000  0.000000
                                CHANNELS  3  Yrotation  Xrotation  Zrotation
                                JOINT  LeftHand
                                {
                                    OFFSET  26.000000  0.000000  0.000000
                                    CHANNELS  3  Yrotation  Xrotation  Zrotation
                                    JOINT  LeftHandThumb1
                                    {
                                        OFFSET  2.489000  0.190000  3.121000
                                        CHANNELS  3  Yrotation  Xrotation  Zrotation
                                        JOINT  LeftHandThumb2
                                        {
                                            OFFSET  3.683000  0.000000  0.000000
                                            CHANNELS  3  Yrotation  Xrotation  Zrotation
                                            JOINT  LeftHandThumb3
                                            {
                                                OFFSET  2.558000  0.000000  0.000000
                                                CHANNELS  3  Yrotation  Xrotation  Zrotation
                                                End Site
                                                {
                                                    OFFSET  2.194000  0.000000  0.000000
                                                }
                                            }
                                        }
                                    }
                                    JOINT  LeftInHandIndex
                                    {
                                        OFFSET  3.224000  0.508000  1.978000
                                        CHANNELS  3  Yrotation  Xrotation  Zrotation
                                        JOINT  LeftHandIndex1
                                        {
                                            OFFSET  5.217000  -0.091000  0.999000
                                            CHANNELS  3  Yrotation  Xrotation  Zrotation
                                            JOINT  LeftHandIndex2
                                            {
                                                OFFSET  3.619000  0.000000  0.000000
                                                CHANNELS  3  Yrotation  Xrotation  Zrotation
                                                JOINT  LeftHandIndex3
                                                {
                                                    OFFSET  2.052000  0.000000  0.000000
                                                    CHANNELS  3  Yrotation  Xrotation  Zrotation
                                                    End Site
                                                    {
                                                        OFFSET  1.805000  0.000000  0.000000
                                                    }
                                                }
                                            }
                                        }
                                    }
                                    JOINT  LeftInHandMiddle
                                    {
                                        OFFSET  3.382000  0.517000  0.757000
                                        CHANNELS  3  Yrotation  Xrotation  Zrotation
                                        JOINT  LeftHandMiddle1
                                        {
                                            OFFSET  5.174000  -0.084000  0.314000
                                            CHANNELS  3  Yrotation  Xrotation  Zrotation
                                            JOINT  LeftHandMiddle2
                                            {
                                                OFFSET  3.949000  0.000000  0.000000
                                                CHANNELS  3  Yrotation  Xrotation  Zrotation
                                                JOINT  LeftHandMiddle3
                                                {
                                                    OFFSET  2.476000  0.000000  0.000000
                                                    CHANNELS  3  Yrotation  Xrotation  Zrotation
                                                    End Site
                                                    {
                                                        OFFSET  1.975000  0.000000  0.000000
                                                    }
                                                }
                                            }
                                        }
                                    }
                                    JOINT  LeftInHandRing
                                    {
                                        OFFSET  3.365000  0.538000  -0.129000
                                        CHANNELS  3  Yrotation  Xrotation  Zrotation
                                        JOINT  LeftHandRing1
                                        {
                                            OFFSET  4.635000  -0.022000  -0.479000
                                            CHANNELS  3  Yrotation  Xrotation  Zrotation
                                            JOINT  LeftHandRing2
                                            {
                                                OFFSET  3.442000  0.000000  0.000000
                                                CHANNELS  3  Yrotation  Xrotation  Zrotation
                                                JOINT  LeftHandRing3
                                                {
                                                    OFFSET  2.388000  0.000000  0.000000
                                                    CHANNELS  3  Yrotation  Xrotation  Zrotation
                                                    End Site
                                                    {
                                                        OFFSET  1.857000  0.000000  0.000000
                                                    }
                                                }
                                            }
                                        }
                                    }
                                    JOINT  LeftInHandPinky
                                    {
                                        OFFSET  3.161000  0.469000  -1.202000
                                        CHANNELS  3  Yrotation  Xrotation  Zrotation
                                        JOINT  LeftHandPinky1
                                        {
                                            OFFSET  4.141000  -0.022000  -1.091000
                                            CHANNELS  3  Yrotation  Xrotation  Zrotation
                                            JOINT  LeftHandPinky2
                                            {
                                                OFFSET  2.757000  0.000000  0.000000
                                                CHANNELS  3  Yrotation  Xrotation  Zrotation
                                                JOINT  LeftHandPinky3
                                                {
                                                    OFFSET  1.742000  0.000000  0.000000
                                                    CHANNELS  3  Yrotation  Xrotation  Zrotation
                                                    End Site
                                                    {
                                                        OFFSET  1.645000  0.000000  0.000000
                                                    }
                                                }
                                            }
                                        }
                                    }
                                }
                            }
                        }
                    }
                }
            }
        }
    }
}
MOTION
Frames: 3
Frame Time: 0.008000
-26.674725  85.598648  19.381540  52.921758  0.422019  0.387510  -11.911262  -37.345002  3.872412  0.000005  47.403407  0.000004  -16.683828  -10.098311  -2.583686  -14.724618  -18.909348  20.071980  -0.000003  40.689284  -0.000004  -23.411560  -22.484264  -6.694448  0.171533  14.055419  -5.587473  -0.042007  3.552489  -1.395860  -0.302630  5.790421  -2.312929  -1.648249  0.052983  0.628484  -1.679242  0.070550  0.635362  -30.964969  7.210427  10.410560  5.686425  -6.240812  4.610501  60.372942  -29.040294  -13.317024  -5.510592  -22.326709  -3.465554  2.562587  6.222629  2.129860  21.860003  -0.000000  30.000000  -10.000000  -0.000000  -0.000000  -10.000000  -0.000000  -0.000000  0.000000  -0.000000  0.000000  2.550000  -0.000000  20.000000  0.000000  -0.000000  24.000000  0.000000  -0.000000  20.000000  0.000000  -0.000000  0.000000  0.000000  -0.000000  20.000000  0.000000  -0.000000  24.000000  0.000000  -0.000000  20.000000  0.000000  -0.000000  0.000000  -3.000000  -0.000000  19.999997  0.000000  -0.000000  24.000000  0.000000  -0.000000  20.000000  0.000000  -0.000000  0.000000  -8.830001  -0.000000  20.000001  0.000000  -0.000000  24.000000  0.000000  -0.000000  20.000000  4.534179  1.287631  11.724147  -41.768920  -40.264110  -40.477804  -95.199776  -23.763337  -20.599681  -9.467601  14.965904  17.670239  -21.860003  -0.000000  -30.000000  10.000000  -0.000000  0.000000  10.000000  -0.000000  0.000000  0.000000  -0.000000  0.000000  -2.550000  -0.000000  -20.000000  0.000000  -0.000000  -24.000000  0.000000  -0.000000  -20.000000  0.000000  -0.000000  0.000000  0.000000  -0.000000  -20.000000  0.000000  -0.000000  -24.000000  0.000000  -0.000000  -20.000000  0.000000  -0.000000  0.000000  3.000000  -0.000000  -19.999997  0.000000  -0.000000  -24.000000  0.000000  -0.000000  -20.000000  0.000000  -0.000000  0.000000  8.830001  -0.000000  -20.000001  0.000000  -0.000000  -24.000000  0.000000  -0.000000  -20.000000
-26.835705  85.532532  19.452936  53.299013  0.438945  0.428400  -12.041036  -37.495206  3.919527  0.000001  47.612997  0.000000  -16.965920  -10.187247  -2.641229  -14.902244  -19.093900  20.151631  0.000005  40.741689  0.000004  -23.373211  -22.466315  -6.717999  0.061416  14.184864  -5.583853  -0.069958  3.582781  -1.392332  -0.350201  5.834267  -2.307928  -1.644162  0.051146  0.633070  -1.674991  0.068793  0.639987  -30.874966  7.208752  10.502642  5.817377  -6.314196  4.673735  60.334785  -29.086484  -13.380208  -5.589268  -22.296409  -3.510059  2.666869  6.166201  2.096609  21.860003  -0.000000  30.000000  -10.000000  -0.000000  -0.000000  -10.000000  -0.000000  -0.000000  0.000000  -0.000000  0.000000  2.550000  -0.000000  20.000000  0.000000  -0.000000  24.000000  0.000000  -0.000000  20.000000  0.000000  -0.000000  0.000000  0.000000  -0.000000  20.000000  0.000000  -0.000000  24.000000  0.000000  -0.000000  20.000000  0.000000  -0.000000  0.000000  -3.000000  -0.000000  19.999997  0.000000  -0.000000  24.000000  0.000000  -0.000000  20.000000  0.000000  -0.000000  0.000000  -8.830001  -0.000000  20.000001  0.000000  -0.000000  24.000000  0.000000  -0.000000  20.000000  4.660505  1.330160  11.732319  -41.828860  -40.256018  -40.356366  -95.081955  -23.679764  -20.529025  -9.706645  14.916242  17.643535  -21.860003  -0.000000  -30.000000  10.000000  -0.000000  0.000000  10.000000  -0.000000  0.000000  0.000000  -0.000000  0.000000  -2.550000  -0.000000  -20.000000  0.000000  -0.000000  -24.000000  0.000000  -0.000000  -20.000000  0.000000  -0.000000  0.000000  0.000000  -0.000000  -20.000000  0.000000  -0.000000  -24.000000  0.000000  -0.000000  -20.000000  0.000000  -0.000000  0.000000  3.000000  -0.000000  -19.999997  0.000000  -0.000000  -24.000000  0.000000  -0.000000  -20.000000  0.000000  -0.000000  0.000000  8.830001  -0.000000  -20.000001  0.000000  -0.000000  -24.000000  0.000000  -0.000000  -20.000000
-26.971413  85.481377  19.519932  53.609483  0.459092  0.470048  -12.099588  -37.623577  3.948408  0.000008  47.776669  0.000007  -17.235063  -10.241874  -2.703077  -15.071895  -19.215726  20.209625  0.000003  40.733500  0.000001  -23.338539  -22.462655  -6.696760  -0.049499  14.290947  -5.586614  -0.098045  3.607048  -1.390355  -0.397878  5.868486  -2.305504  -1.640316  0.048347  0.637540  -1.671016  0.066071  0.644497  -30.791916  7.192181  10.595922  5.899845  -6.334420  4.717384  60.372495  -29.152704  -13.436842  -5.611751  -22.198008  -3.575070  2.745106  6.320677  2.214403  21.860003  -0.000000  30.000000  -10.000000  -0.000000  -0.000000  -10.000000  -0.000000  -0.000000  0.000000  -0.000000  0.000000  2.550000  -0.000000  20.000000  0.000000  -0.000000  24.000000  0.000000  -0.000000  20.000000  0.000000  -0.000000  0.000000  0.000000  -0.000000  20.000000  0.000000  -0.000000  24.000000  0.000000  -0.000000  20.000000  0.000000  -0.000000  0.000000  -3.000000  -0.000000  19.999997  0.000000  -0.000000  24.000000  0.000000  -0.000000  20.000000  0.000000  -0.000000  0.000000  -8.830001  -0.000000  20.000001  0.000000  -0.000000  24.000000  0.000000  -0.000000  20.000000  4.761277  1.349015  11.684091  -41.884731  -40.217322  -40.268449  -94.958586  -23.595502  -20.499548  -9.945898  14.908582  17.596475  -21.860003  -0.000000  -30.000000  10.000000  -0.000000  0.000000  10.000000  -0.000000  0.000000  0.000000  -0.000000  0.000000  -2.550000  -0.000000  -20.000000  0.000000  -0.000000  -24.000000  0.000000  -0.000000  -20.000000  0.000000  -0.000000  0.000000  0.000000  -0.000000  -20.000000  0.000000  -0.000000  -24.000000  0.000000  -0.000000  -20.000000  0.000000  -0.000000  0.000000  3.000000  -0.000000  -19.999997  0.000000  -0.000000  -24.000000  0.000000  -0.000000  -20.000000  0.000000  -0.000000  0.000000  8.830001  -0.000000  -20.000001  0.000000  -0.000000  -24.000000  0.000000  -0.000000  -20.000000
